<svg xmlns="http://www.w3.org/2000/svg" width="300" height="300" viewBox="0 0 300 300" class="lakit-font-icon-svg" data-icon-name="e-remove" data-icon-type="LaStudioIcons"><path d="M53.7 53.7c-4.5 4.2-8.1 8.4-8.1 9s19.5 20.4 43.2 44.1l42.9 43.2-42.9 43.2c-23.7 23.4-43.2 43.5-43.2 44.1 0 1.5 15.6 17.1 17.1 17.1.6 0 20.7-19.5 44.1-43.2l43.2-42.9 43.8 43.5 43.5 43.8 8.4-8.7c4.8-4.8 8.7-9 8.7-9.6s-19.5-20.7-43.2-44.1L168.3 150l42.9-43.2c23.7-23.7 43.2-43.5 43.2-44.1 0-1.5-15.6-17.1-17.1-17.1-.6 0-20.4 19.5-44.1 43.2L150 131.7l-43.2-42.9C83.4 65.1 63.3 45.6 62.7 45.6s-4.8 3.6-9 8.1" fill="currentColor"/></svg>